<svg xmlns="http://www.w3.org/2000/svg" width="1600" height="900" viewBox="0 0 1600 900">
<defs>
  <linearGradient id="bg" x1="0" y1="0" x2="1" y2="1"><stop offset="0" stop-color="#fbfdff"/><stop offset="1" stop-color="#edf6ff"/></linearGradient>
  <filter id="shadow" x="-20%" y="-20%" width="140%" height="140%"><feDropShadow dx="0" dy="8" stdDeviation="10" flood-color="#1f2937" flood-opacity="0.10"/></filter>
  <marker id="arrow" markerWidth="14" markerHeight="14" refX="11" refY="7" orient="auto"><path d="M2,2 L12,7 L2,12 Z" fill="#2563eb"/></marker>
  <marker id="arrow2" markerWidth="14" markerHeight="14" refX="11" refY="7" orient="auto"><path d="M2,2 L12,7 L2,12 Z" fill="#5b667a"/></marker>
</defs>
<rect width="1600" height="900" fill="url(#bg)"/>
<circle cx="1350" cy="110" r="220" fill="#dbeafe" opacity="0.50"/>
<circle cx="150" cy="790" r="180" fill="#ccfbf1" opacity="0.40"/>
<title>boundary</title>
<text x="80" y="80" text-anchor="start" font-size="40" font-weight="800" fill="#172033" font-family="Noto Sans CJK SC, Noto Sans CJK, Noto Sans, Arial, sans-serif"><tspan x="80" dy="0.0">Agentic AI 安全边界：从模型调用扩展到自主执行</tspan></text><rect x="90" y="215" width="225" height="245" rx="22" fill="#ffffff" stroke="#2563eb" stroke-width="2.4" filter="url(#shadow)"/><rect x="90" y="215" width="225" height="8" rx="4" fill="#2563eb"/><text x="202.5" y="265" text-anchor="middle" font-size="32" font-weight="700" fill="#172033" font-family="Noto Sans CJK SC, Noto Sans CJK, Noto Sans, Arial, sans-serif"><tspan x="202.5" dy="0.0">感知</tspan></text><text x="202.5" y="311" text-anchor="middle" font-size="21" font-weight="400" fill="#5b667a" font-family="Noto Sans CJK SC, Noto Sans CJK, Noto Sans, Arial, sans-serif"><tspan x="202.5" dy="0.0">用户输入</tspan><tspan x="202.5" dy="28.4">文档与工具响应</tspan></text><rect x="365" y="215" width="225" height="245" rx="22" fill="#ffffff" stroke="#0891b2" stroke-width="2.4" filter="url(#shadow)"/><rect x="365" y="215" width="225" height="8" rx="4" fill="#0891b2"/><text x="477.5" y="265" text-anchor="middle" font-size="32" font-weight="700" fill="#172033" font-family="Noto Sans CJK SC, Noto Sans CJK, Noto Sans, Arial, sans-serif"><tspan x="477.5" dy="0.0">规划</tspan></text><text x="477.5" y="311" text-anchor="middle" font-size="21" font-weight="400" fill="#5b667a" font-family="Noto Sans CJK SC, Noto Sans CJK, Noto Sans, Arial, sans-serif"><tspan x="477.5" dy="0.0">系统提示词</tspan><tspan x="477.5" dy="28.4">上下文与任务计划</tspan></text><rect x="640" y="215" width="225" height="245" rx="22" fill="#ffffff" stroke="#7c3aed" stroke-width="2.4" filter="url(#shadow)"/><rect x="640" y="215" width="225" height="8" rx="4" fill="#7c3aed"/><text x="752.5" y="265" text-anchor="middle" font-size="32" font-weight="700" fill="#172033" font-family="Noto Sans CJK SC, Noto Sans CJK, Noto Sans, Arial, sans-serif"><tspan x="752.5" dy="0.0">记忆</tspan></text><text x="752.5" y="311" text-anchor="middle" font-size="21" font-weight="400" fill="#5b667a" font-family="Noto Sans CJK SC, Noto Sans CJK, Noto Sans, Arial, sans-serif"><tspan x="752.5" dy="0.0">短期上下文</tspan><tspan x="752.5" dy="28.4">长期记忆与向量索引</tspan></text><rect x="915" y="215" width="225" height="245" rx="22" fill="#ffffff" stroke="#f59e0b" stroke-width="2.4" filter="url(#shadow)"/><rect x="915" y="215" width="225" height="8" rx="4" fill="#f59e0b"/><text x="1027.5" y="265" text-anchor="middle" font-size="32" font-weight="700" fill="#172033" font-family="Noto Sans CJK SC, Noto Sans CJK, Noto Sans, Arial, sans-serif"><tspan x="1027.5" dy="0.0">行动</tspan></text><text x="1027.5" y="311" text-anchor="middle" font-size="21" font-weight="400" fill="#5b667a" font-family="Noto Sans CJK SC, Noto Sans CJK, Noto Sans, Arial, sans-serif"><tspan x="1027.5" dy="0.0">数据库 / 代码仓库</tspan><tspan x="1027.5" dy="28.4">云 API / 邮件</tspan></text><rect x="1190" y="215" width="225" height="245" rx="22" fill="#ffffff" stroke="#16a34a" stroke-width="2.4" filter="url(#shadow)"/><rect x="1190" y="215" width="225" height="8" rx="4" fill="#16a34a"/><text x="1302.5" y="265" text-anchor="middle" font-size="32" font-weight="700" fill="#172033" font-family="Noto Sans CJK SC, Noto Sans CJK, Noto Sans, Arial, sans-serif"><tspan x="1302.5" dy="0.0">协作</tspan></text><text x="1302.5" y="311" text-anchor="middle" font-size="21" font-weight="400" fill="#5b667a" font-family="Noto Sans CJK SC, Noto Sans CJK, Noto Sans, Arial, sans-serif"><tspan x="1302.5" dy="0.0">A2A / MCP</tspan><tspan x="1302.5" dy="28.4">多 Agent</tspan><tspan x="1302.5" dy="28.4">与外部服务</tspan></text><line x1="315" y1="338" x2="365" y2="338" stroke="#2563eb" stroke-width="3" marker-end="url(#arrow)"/><line x1="590" y1="338" x2="640" y2="338" stroke="#0891b2" stroke-width="3" marker-end="url(#arrow)"/><line x1="865" y1="338" x2="915" y2="338" stroke="#7c3aed" stroke-width="3" marker-end="url(#arrow)"/><line x1="1140" y1="338" x2="1190" y2="338" stroke="#f59e0b" stroke-width="3" marker-end="url(#arrow)"/><rect x="180" y="590" width="350" height="150" rx="22" fill="#ffffff" stroke="#dc2626" stroke-width="2.4" filter="url(#shadow)"/><rect x="180" y="590" width="350" height="8" rx="4" fill="#dc2626"/><text x="355.0" y="640" text-anchor="middle" font-size="28" font-weight="700" fill="#172033" font-family="Noto Sans CJK SC, Noto Sans CJK, Noto Sans, Arial, sans-serif"><tspan x="355.0" dy="0.0">传统安全不足</tspan></text><text x="355.0" y="686" text-anchor="middle" font-size="21" font-weight="400" fill="#5b667a" font-family="Noto Sans CJK SC, Noto Sans CJK, Noto Sans, Arial, sans-serif"><tspan x="355.0" dy="0.0">TLS 只到连接终点</tspan><tspan x="355.0" dy="28.4">静态加密不保护使用中数据</tspan></text><rect x="625" y="590" width="350" height="150" rx="22" fill="#ffffff" stroke="#2563eb" stroke-width="2.4" filter="url(#shadow)"/><rect x="625" y="590" width="350" height="8" rx="4" fill="#2563eb"/><text x="800.0" y="640" text-anchor="middle" font-size="28" font-weight="700" fill="#172033" font-family="Noto Sans CJK SC, Noto Sans CJK, Noto Sans, Arial, sans-serif"><tspan x="800.0" dy="0.0">需要可验证执行</tspan></text><text x="800.0" y="686" text-anchor="middle" font-size="21" font-weight="400" fill="#5b667a" font-family="Noto Sans CJK SC, Noto Sans CJK, Noto Sans, Arial, sans-serif"><tspan x="800.0" dy="0.0">运行环境可证明</tspan><tspan x="800.0" dy="28.4">密钥按证明释放</tspan></text><rect x="1070" y="590" width="350" height="150" rx="22" fill="#ffffff" stroke="#16a34a" stroke-width="2.4" filter="url(#shadow)"/><rect x="1070" y="590" width="350" height="8" rx="4" fill="#16a34a"/><text x="1245.0" y="640" text-anchor="middle" font-size="28" font-weight="700" fill="#172033" font-family="Noto Sans CJK SC, Noto Sans CJK, Noto Sans, Arial, sans-serif"><tspan x="1245.0" dy="0.0">需要可信协作</tspan></text><text x="1245.0" y="686" text-anchor="middle" font-size="21" font-weight="400" fill="#5b667a" font-family="Noto Sans CJK SC, Noto Sans CJK, Noto Sans, Arial, sans-serif"><tspan x="1245.0" dy="0.0">Agent / Tool /</tspan><tspan x="1245.0" dy="28.4">Memory</tspan><tspan x="1245.0" dy="28.4">通信携带证明语义</tspan></text><line x1="530" y1="665" x2="625" y2="665" stroke="#2563eb" stroke-width="3" marker-end="url(#arrow)"/><line x1="975" y1="665" x2="1070" y2="665" stroke="#16a34a" stroke-width="3" marker-end="url(#arrow)"/></svg>
