<svg xmlns="http://www.w3.org/2000/svg" width="1600" height="900" viewBox="0 0 1600 900">
<defs>
  <linearGradient id="bg" x1="0" y1="0" x2="1" y2="1"><stop offset="0" stop-color="#fbfdff"/><stop offset="1" stop-color="#edf6ff"/></linearGradient>
  <filter id="shadow" x="-20%" y="-20%" width="140%" height="140%"><feDropShadow dx="0" dy="8" stdDeviation="10" flood-color="#1f2937" flood-opacity="0.10"/></filter>
  <marker id="arrow" markerWidth="14" markerHeight="14" refX="11" refY="7" orient="auto"><path d="M2,2 L12,7 L2,12 Z" fill="#2563eb"/></marker>
  <marker id="arrow2" markerWidth="14" markerHeight="14" refX="11" refY="7" orient="auto"><path d="M2,2 L12,7 L2,12 Z" fill="#5b667a"/></marker>
</defs>
<rect width="1600" height="900" fill="url(#bg)"/>
<circle cx="1350" cy="110" r="220" fill="#dbeafe" opacity="0.50"/>
<circle cx="150" cy="790" r="180" fill="#ccfbf1" opacity="0.40"/>
<title>cover</title>
<text x="120" y="150" text-anchor="start" font-size="64" font-weight="800" fill="#172033" font-family="Noto Sans CJK SC, Noto Sans CJK, Noto Sans, Arial, sans-serif"><tspan x="120" dy="0.0">Confidential Agent</tspan></text><text x="120" y="220" text-anchor="start" font-size="36" font-weight="700" fill="#2563eb" font-family="Noto Sans CJK SC, Noto Sans CJK, Noto Sans, Arial, sans-serif"><tspan x="120" dy="0.0">Agentic AI 的机密计算安全底座</tspan></text><text x="120" y="285" text-anchor="start" font-size="25" font-weight="500" fill="#5b667a" font-family="Noto Sans CJK SC, Noto Sans CJK, Noto Sans, Arial, sans-serif"><tspan x="120" dy="0.0">可验证执行 · 证明驱动密钥释放 · RATS-TLS 可信协作 ·</tspan><tspan x="120" dy="33.8">受策略约束的工具调用</tspan></text><rect x="130" y="395" width="300" height="185" rx="22" fill="#ffffff" stroke="#2563eb" stroke-width="2.4" filter="url(#shadow)"/><rect x="130" y="395" width="300" height="8" rx="4" fill="#2563eb"/><text x="280.0" y="445" text-anchor="middle" font-size="28" font-weight="700" fill="#172033" font-family="Noto Sans CJK SC, Noto Sans CJK, Noto Sans, Arial, sans-serif"><tspan x="280.0" dy="0.0">可度量构建</tspan></text><text x="280.0" y="491" text-anchor="middle" font-size="21" font-weight="400" fill="#5b667a" font-family="Noto Sans CJK SC, Noto Sans CJK, Noto Sans, Arial, sans-serif"><tspan x="280.0" dy="0.0">AppSpec</tspan><tspan x="280.0" dy="28.4">UKI / dm-verity</tspan><tspan x="280.0" dy="28.4">Reference Values</tspan></text><line x1="430" y1="488" x2="505" y2="488" stroke="#2563eb" stroke-width="3" marker-end="url(#arrow)"/><rect x="505" y="395" width="300" height="185" rx="22" fill="#ffffff" stroke="#0891b2" stroke-width="2.4" filter="url(#shadow)"/><rect x="505" y="395" width="300" height="8" rx="4" fill="#0891b2"/><text x="655.0" y="445" text-anchor="middle" font-size="28" font-weight="700" fill="#172033" font-family="Noto Sans CJK SC, Noto Sans CJK, Noto Sans, Arial, sans-serif"><tspan x="655.0" dy="0.0">可证明运行</tspan></text><text x="655.0" y="491" text-anchor="middle" font-size="21" font-weight="400" fill="#5b667a" font-family="Noto Sans CJK SC, Noto Sans CJK, Noto Sans, Arial, sans-serif"><tspan x="655.0" dy="0.0">TDX Quote</tspan><tspan x="655.0" dy="28.4">Trustiflux</tspan><tspan x="655.0" dy="28.4">CDH 资源释放</tspan></text><line x1="805" y1="488" x2="880" y2="488" stroke="#0891b2" stroke-width="3" marker-end="url(#arrow)"/><rect x="880" y="395" width="300" height="185" rx="22" fill="#ffffff" stroke="#16a34a" stroke-width="2.4" filter="url(#shadow)"/><rect x="880" y="395" width="300" height="8" rx="4" fill="#16a34a"/><text x="1030.0" y="445" text-anchor="middle" font-size="28" font-weight="700" fill="#172033" font-family="Noto Sans CJK SC, Noto Sans CJK, Noto Sans, Arial, sans-serif"><tspan x="1030.0" dy="0.0">可信数据面</tspan></text><text x="1030.0" y="491" text-anchor="middle" font-size="21" font-weight="400" fill="#5b667a" font-family="Noto Sans CJK SC, Noto Sans CJK, Noto Sans, Arial, sans-serif"><tspan x="1030.0" dy="0.0">TNG RATS-TLS</tspan><tspan x="1030.0" dy="28.4">Connect / Mesh</tspan><tspan x="1030.0" dy="28.4">A2A</tspan></text><line x1="1180" y1="488" x2="1255" y2="488" stroke="#16a34a" stroke-width="3" marker-end="url(#arrow)"/><rect x="1255" y="395" width="300" height="185" rx="22" fill="#ffffff" stroke="#7c3aed" stroke-width="2.4" filter="url(#shadow)"/><rect x="1255" y="395" width="300" height="8" rx="4" fill="#7c3aed"/><text x="1405.0" y="445" text-anchor="middle" font-size="28" font-weight="700" fill="#172033" font-family="Noto Sans CJK SC, Noto Sans CJK, Noto Sans, Arial, sans-serif"><tspan x="1405.0" dy="0.0">策略执行点</tspan></text><text x="1405.0" y="491" text-anchor="middle" font-size="21" font-weight="400" fill="#5b667a" font-family="Noto Sans CJK SC, Noto Sans CJK, Noto Sans, Arial, sans-serif"><tspan x="1405.0" dy="0.0">cai-pep</tspan><tspan x="1405.0" dy="28.4">Tool Sandbox</tspan></text><rect x="175" y="665" width="330" height="70" rx="35.0" fill="#2563eb" opacity="0.10" stroke="#2563eb" stroke-width="2"/><text x="340.0" y="708.0" text-anchor="middle" font-size="23" font-weight="700" fill="#2563eb" font-family="Noto Sans CJK SC, Noto Sans CJK, Noto Sans, Arial, sans-serif"><tspan x="340.0" dy="0.0">代码即身份</tspan></text><rect x="635" y="665" width="330" height="70" rx="35.0" fill="#0891b2" opacity="0.10" stroke="#0891b2" stroke-width="2"/><text x="800.0" y="708.0" text-anchor="middle" font-size="23" font-weight="700" fill="#0891b2" font-family="Noto Sans CJK SC, Noto Sans CJK, Noto Sans, Arial, sans-serif"><tspan x="800.0" dy="0.0">环境即身份</tspan></text><rect x="1095" y="665" width="330" height="70" rx="35.0" fill="#16a34a" opacity="0.10" stroke="#16a34a" stroke-width="2"/><text x="1260.0" y="708.0" text-anchor="middle" font-size="23" font-weight="700" fill="#16a34a" font-family="Noto Sans CJK SC, Noto Sans CJK, Noto Sans, Arial, sans-serif"><tspan x="1260.0" dy="0.0">通道即证明</tspan></text></svg>
